<svg id="Capa_1" enable-background="new 0 0 512 512" height="512" viewBox="0 0 512 512" width="512" xmlns="http://www.w3.org/2000/svg"><g><g><path d="m477.109 29.693h-442.218c-19.239 0-34.891 15.653-34.891 34.892v334.489c0 19.239 15.652 34.891 34.891 34.891h137.898l-18.73 28.342h-94.023c-5.523 0-10 4.478-10 10s4.477 10 10 10h391.928c5.523 0 10-4.478 10-10s-4.477-10-10-10h-94.023l-18.73-28.342h137.898c19.239 0 34.891-15.651 34.891-34.891v-334.489c0-19.239-15.652-34.892-34.891-34.892zm-143.141 432.614h-155.936l18.731-28.342h118.476zm158.032-63.233c0 8.211-6.68 14.891-14.891 14.891h-442.218c-8.211 0-14.891-6.68-14.891-14.891v-334.489c0-8.211 6.68-14.892 14.891-14.892h442.218c8.211 0 14.891 6.681 14.891 14.892z"/><path d="m455.143 367.359h-32.107c-5.523 0-10 4.478-10 10s4.477 10 10 10h32.107c5.523 0 10-4.478 10-10s-4.477-10-10-10z"/><path d="m375.205 367.359h-32.106c-5.523 0-10 4.478-10 10s4.477 10 10 10h32.106c5.523 0 10-4.478 10-10s-4.477-10-10-10z"/><path d="m295.267 367.359h-32.107c-5.523 0-10 4.478-10 10s4.477 10 10 10h32.106c5.523 0 10-4.478 10-10 .001-5.522-4.476-10-9.999-10z"/><path d="m158.751 367.359h-101.894c-5.523 0-10 4.478-10 10s4.477 10 10 10h101.894c5.523 0 10-4.478 10-10s-4.477-10-10-10z"/><path d="m455.143 76.688h-398.286c-5.523 0-10 4.478-10 10v247.221c0 5.522 4.477 10 10 10h398.286c5.523 0 10-4.478 10-10v-73.403c0-5.522-4.477-10-10-10s-10 4.477-10 10v63.403h-378.286v-227.221h378.286v73.405c0 5.522 4.477 10 10 10s10-4.478 10-10v-83.405c0-5.522-4.477-10-10-10z"/><path d="m463.46 209.93c-2.26-3.358-6.465-5.081-10.43-4.215-4.105.896-7.272 4.339-7.81 8.509-.533 4.131 1.681 8.283 5.388 10.165 3.668 1.863 8.212 1.254 11.258-1.512 3.618-3.285 4.303-8.881 1.594-12.947z"/><path d="m362.719 205.64-16.797-37.124c-1.609-3.557-5.142-5.852-9.045-5.878h-.066c-3.878 0-7.409 2.243-9.056 5.759l-29.024 61.975-18.534-36.352c-1.811-3.553-5.547-5.68-9.541-5.438-3.98.253-7.43 2.846-8.779 6.6l-22.33 62.15-32.948-119.072c-1.058-3.825-4.278-6.662-8.206-7.23-3.926-.569-7.82 1.241-9.919 4.608l-45.707 73.348h-45.503c-5.523 0-10 4.478-10 10s4.477 10 10 10h51.054c3.453 0 6.661-1.781 8.487-4.711l36.594-58.724 35.271 127.469c1.162 4.199 4.909 7.163 9.263 7.326.127.005.252.007.378.007 4.204 0 7.978-2.637 9.408-6.619l25.162-70.031 17.322 33.976c1.735 3.403 5.251 5.5 9.076 5.457 3.819-.064 7.269-2.299 8.889-5.758l28.486-60.827 10.502 23.212c1.619 3.579 5.183 5.878 9.111 5.878h58.468c5.523 0 10-4.478 10-10s-4.477-10-10-10h-52.016z"/></g></g></svg>